<?xml version="1.0" encoding="utf-8"?>
<!-- Generator: Adobe Illustrator 27.5.0, SVG Export Plug-In . SVG Version: 6.00 Build 0)  -->
<svg version="1.1" id="_x3C_Layer_x3E_" xmlns="http://www.w3.org/2000/svg" xmlns:xlink="http://www.w3.org/1999/xlink" x="0px"
	 y="0px" viewBox="0 0 2760 1840" style="enable-background:new 0 0 2760 1840; fill: #171717;" xml:space="preserve">
<rect width="2760" height="1840"/>
<g>
	<g>
		<path style="fill:#EBF3FA;" d="M332.25,1602.471c0,0-205.285-338.005-107.798-736.822
			c65.978-269.915,428.899-461.64,656.722-376.654c121.979,45.502,268.078,77.152,456.759-133.378
			c314.938-351.41,1278.337-184.498,1097.442,536.866c-87.54,349.089,266.421,361.777,86.063,710.728L332.25,1602.471z"/>
	</g>
	<g>
		<g>
			<g>
				
					<rect x="2222.574" y="1013.851" transform="matrix(0.9874 -0.1585 0.1585 0.9874 -142.0125 366.6892)" style="fill:#B5453C;" width="10.134" height="119.442"/>
			</g>
			<g>
				<polygon style="fill:#EFCBAB;" points="2214.837,993.844 2213.169,1015.41 2223.175,1013.803 				"/>
			</g>
		</g>
		<g>
			<g>
				
					<rect x="2310.621" y="1023.681" transform="matrix(0.9832 0.1827 -0.1827 0.9832 236.9306 -404.8647)" style="fill:#B5453C;" width="10.133" height="119.443"/>
			</g>
			<g>
				<polygon style="fill:#EFCBAB;" points="2330.438,1004.011 2321.615,1023.761 2331.578,1025.611 				"/>
			</g>
		</g>
		<g>
			<g>
				
					<rect x="2297.988" y="989.237" transform="matrix(0.9832 0.1827 -0.1827 0.9832 230.4386 -403.1565)" style="fill:#B5453C;" width="10.134" height="119.443"/>
			</g>
			<g>
				<polygon style="fill:#EFCBAB;" points="2317.805,969.566 2308.982,989.316 2318.946,991.167 				"/>
			</g>
		</g>
		<g>
			<g>
				<rect x="2250.684" y="1063.593" style="fill:#ED7D2B;" width="79.822" height="115.039"/>
			</g>
			<g>
				<rect x="2210.773" y="1063.593" style="fill:#F99746;" width="79.822" height="115.039"/>
			</g>
		</g>
	</g>
	<g>
		<g>
			<path style="fill:#FFFFFF;" d="M2256.894,1147.592c-0.749,1.804-2.13,11.356-5.071,19.348l0.001,0.011
				c-1.772,4.809-4.1,9.037-7.194,10.688c-8.249,4.409-22.848-1.56-22.848-1.56s-24.23,4.164-26.662,3.17
				c-2.434-0.995-6.829-37.462-6.829-37.462s17.876-20.756,19.538-21.412c1.662-0.657,15.953,5.894,18.324,5.763
				c2.37-0.132,15.754-9.964,19.605-7.896C2249.61,1120.322,2258.094,1144.702,2256.894,1147.592z"/>
		</g>
		<g>
			<path style="fill:#F2F7FE;" d="M2226.152,1126.138c0,0-3.705,9.807-4.843,10.717c-1.14,0.909-13.481-16.479-13.481-16.479
				C2209.49,1119.718,2223.781,1126.269,2226.152,1126.138z"/>
		</g>
		<g>
			<path style="fill:#F2F7FE;" d="M2246.002,1127.77c0,0-16.441,17.005-16.132,18.494c0.309,1.488,19.415,11.162,20.071,10.75
				c0.657-0.414-4.647-12.356-4.536-14.434C2245.518,1140.504,2246.002,1127.77,2246.002,1127.77z"/>
		</g>
		<g>
			<path style="fill:#F2F7FE;" d="M2256.894,1147.592c-0.749,1.804-2.13,11.356-5.071,19.348l0.001,0.011l-0.007,0.001l1.076-18.008
				l-7.135-30.701C2249.61,1120.322,2258.094,1144.702,2256.894,1147.592z"/>
		</g>
		<g>
			<path style="fill:#F2F7FE;" d="M2221.781,1176.079c0,0-24.23,4.164-26.662,3.17c-2.434-0.995-6.829-37.462-6.829-37.462
				s6.342,18.479,6.509,19.406c0.167,0.929,7.559-1.536,7.559-1.536L2221.781,1176.079z"/>
		</g>
		<g>
			<polygon style="fill:#F2F7FE;" points="2194.641,1141.437 2197.887,1150.994 2203.475,1150.684 2199.1,1146.837 			"/>
		</g>
	</g>
	<g>
		<g>
			<path style="fill:#8FADEF;" d="M2040.501,1184.707v10.389c0,3.637,1.177,6.606,2.614,6.606h379.077
				c1.437,0,2.613-2.97,2.613-6.606v-10.389c0-3.63-1.177-6.606-2.613-6.606h-379.077
				C2041.678,1178.101,2040.501,1181.077,2040.501,1184.707z"/>
		</g>
		<g>
			<path style="fill:#BBD0FF;" d="M2040.501,1184.707v10.389c0,3.637,1.079,6.606,2.398,6.606h300.946
				c1.318,0,2.399-2.97,2.399-6.606v-10.389c0-3.63-1.081-6.606-2.399-6.606h-300.946
				C2041.58,1178.101,2040.501,1181.077,2040.501,1184.707z"/>
		</g>
		<g>
			
				<rect x="2136.444" y="1201.705" transform="matrix(-1 -1.224647e-16 1.224647e-16 -1 4542.0107 2795.666)" style="fill:#AEC3FF;" width="269.122" height="392.256"/>
		</g>
		<g>
			
				<rect x="2061.026" y="1201.705" transform="matrix(-1 -1.224647e-16 1.224647e-16 -1 4391.1748 2795.666)" style="fill:#D2E0FF;" width="269.122" height="392.256"/>
		</g>
		<g>
			<g>
				<g>
					<path style="fill:#AEC3FF;" d="M2075.484,1212.786h240.199v359.519h-240.199V1212.786z M2313.09,1215.379h-235.012v354.332
						h235.012V1215.379z"/>
				</g>
			</g>
			<g>
				<g>
					<rect x="2076.781" y="1331.718" style="fill:#AEC3FF;" width="237.605" height="2.593"/>
				</g>
			</g>
			<g>
				<g>
					<rect x="2076.781" y="1452.967" style="fill:#AEC3FF;" width="237.605" height="2.594"/>
				</g>
			</g>
			<g>
				<path style="fill:#AEC3FF;" d="M2171.236,1235.972h44.092c2.139,0,3.89-1.75,3.89-3.891l0,0c0-2.139-1.751-3.89-3.89-3.89
					h-44.092c-2.139,0-3.89,1.751-3.89,3.89l0,0C2167.347,1234.222,2169.098,1235.972,2171.236,1235.972z"/>
			</g>
			<g>
				<path style="fill:#AEC3FF;" d="M2171.236,1354.541h44.092c2.139,0,3.89-1.751,3.89-3.891l0,0c0-2.14-1.751-3.89-3.89-3.89
					h-44.092c-2.139,0-3.89,1.75-3.89,3.89l0,0C2167.347,1352.79,2169.098,1354.541,2171.236,1354.541z"/>
			</g>
			<g>
				<path style="fill:#AEC3FF;" d="M2171.236,1478.142h44.092c2.139,0,3.89-1.751,3.89-3.891l0,0c0-2.14-1.751-3.891-3.89-3.891
					h-44.092c-2.139,0-3.89,1.751-3.89,3.891l0,0C2167.347,1476.391,2169.098,1478.142,2171.236,1478.142z"/>
			</g>
		</g>
	</g>
	<g>
		<g>
			<path style="fill:#C0D8FB;" d="M1987.484,465.978h-157.955c-7.251,0-13.184-5.933-13.184-13.184V300.34
				c0-7.251,5.933-13.184,13.184-13.184h157.955c7.251,0,13.184,5.933,13.184,13.184v152.454
				C2000.668,460.045,1994.735,465.978,1987.484,465.978z"/>
		</g>
		<g>
			<path style="fill:#DFEBFD;" d="M1980.642,458.23h-144.27c-6.622,0-12.041-5.418-12.041-12.041V306.945
				c0-6.622,5.419-12.042,12.041-12.042h144.27c6.623,0,12.04,5.419,12.04,12.042V446.19
				C1992.682,452.813,1987.265,458.23,1980.642,458.23z"/>
		</g>
		<g>
			<g>
				<g>
					<path style="fill:#B7D3F3;" d="M1904.689,311.224c0-2.108,1.709-3.818,3.817-3.818s3.818,1.71,3.818,3.818
						c0,2.109-1.71,3.818-3.818,3.818S1904.689,313.332,1904.689,311.224z"/>
				</g>
				<g>
					<path style="fill:#B7D3F3;" d="M1935.498,316.62c1.023-1.843,3.348-2.507,5.191-1.482c1.844,1.024,2.508,3.349,1.482,5.192
						c-1.023,1.843-3.348,2.507-5.191,1.482C1935.137,320.788,1934.474,318.463,1935.498,316.62z"/>
				</g>
				<g>
					<path style="fill:#B7D3F3;" d="M1961.893,337.59c1.771-1.143,4.135-0.634,5.278,1.139c1.144,1.771,0.634,4.135-1.138,5.278
						c-1.773,1.143-4.136,0.633-5.279-1.139C1959.611,341.097,1960.121,338.733,1961.893,337.59z"/>
				</g>
				<g>
					<path style="fill:#B7D3F3;" d="M1974.967,370.047c2.109,0,3.818,1.71,3.818,3.818c0,2.109-1.709,3.818-3.818,3.818
						c-2.108,0-3.818-1.71-3.818-3.818C1971.148,371.757,1972.858,370.047,1974.967,370.047z"/>
				</g>
				<g>
					<path style="fill:#B7D3F3;" d="M1968.291,407.714c1.492,1.491,1.492,3.909,0,5.4c-1.49,1.491-3.908,1.491-5.398,0
						c-1.492-1.491-1.492-3.909,0-5.4C1964.383,406.223,1966.801,406.223,1968.291,407.714z"/>
				</g>
				<g>
					<path style="fill:#B7D3F3;" d="M1944.314,431.753c1.492,1.491,1.492,3.908,0,5.399c-1.49,1.491-3.908,1.491-5.399,0
						c-1.49-1.491-1.49-3.908,0-5.399C1940.406,430.262,1942.824,430.262,1944.314,431.753z"/>
				</g>
				<g>
					<path style="fill:#B7D3F3;" d="M1904.689,444.144c0-2.108,1.709-3.818,3.817-3.818s3.818,1.71,3.818,3.818
						c0,2.108-1.71,3.817-3.818,3.817S1904.689,446.252,1904.689,444.144z"/>
				</g>
			</g>
			<g>
				<g>
					<path style="fill:#B7D3F3;" d="M1881.395,316.62c-1.024-1.843-3.35-2.507-5.192-1.482c-1.843,1.024-2.507,3.349-1.483,5.192
						c1.024,1.843,3.35,2.507,5.193,1.482C1881.755,320.788,1882.419,318.463,1881.395,316.62z"/>
				</g>
				<g>
					<path style="fill:#B7D3F3;" d="M1854.999,337.59c-1.771-1.143-4.134-0.634-5.278,1.139c-1.143,1.771-0.633,4.135,1.14,5.278
						c1.771,1.143,4.135,0.633,5.277-1.139C1857.281,341.097,1856.772,338.733,1854.999,337.59z"/>
				</g>
				<g>
					<path style="fill:#B7D3F3;" d="M1841.926,370.047c-2.109,0-3.818,1.71-3.818,3.818c0,2.109,1.709,3.818,3.818,3.818
						c2.108,0,3.818-1.71,3.818-3.818C1845.744,371.757,1844.034,370.047,1841.926,370.047z"/>
				</g>
				<g>
					<path style="fill:#B7D3F3;" d="M1848.601,407.714c-1.491,1.491-1.491,3.909,0,5.4s3.909,1.491,5.399,0
						c1.492-1.491,1.492-3.909,0-5.4C1852.51,406.223,1850.092,406.223,1848.601,407.714z"/>
				</g>
				<g>
					<path style="fill:#B7D3F3;" d="M1872.577,431.753c-1.491,1.491-1.491,3.908,0,5.399c1.491,1.491,3.908,1.491,5.399,0
						c1.492-1.491,1.492-3.908,0-5.399C1876.485,430.262,1874.068,430.262,1872.577,431.753z"/>
				</g>
			</g>
		</g>
		<g>
			<g>
				<path style="fill:#B7D3F3;" d="M1907.479,373.865c0-2.108,1.708-3.818,3.817-3.818c2.108,0,3.818,1.71,3.818,3.818
					c0,2.109-1.71,3.818-3.818,3.818C1909.187,377.684,1907.479,375.974,1907.479,373.865z"/>
			</g>
			<g>
				<g>
					<rect x="1910.774" y="326.167" style="fill:#B7D3F3;" width="1.043" height="47.699"/>
				</g>
			</g>
			<g>
				<g>
					
						<rect x="1907.384" y="362.309" transform="matrix(0.7866 -0.6175 0.6175 0.7866 185.8171 1265.3701)" style="fill:#B7D3F3;" width="32.148" height="3.127"/>
				</g>
			</g>
		</g>
	</g>
	<g>
		<g>
			<g>
				<path style="fill:#AEC3FF;" d="M541.049,1330.201c0,0,42.32-49.372,2.61-80.733c0,0-29.007-17.561-52.657-16.134
					c0,0,33.512,56.197,22.671,61.787c-10.843,5.589-32.829-65.313-32.829-65.313s-66.009-6.401-87.243,3.808
					c0,0,56.429,46.178,44.545,48.927c-11.885,2.749-72.835-42.575-72.835-42.575s-61.435,10.454-58.16,47.932
					c3.276,37.478,24.444,49.05,33.749,48.053c9.304-0.996,63.729-21.771,64.914-14.148c1.186,7.623-31.575,32.537-54.516,33.702
					c0,0,43.313,47.768,72.099,33.981c28.786-13.785,31.243-35.639,49.188-43.835c17.943-8.195,33.262-8.176,25.852,0.185
					c-7.408,8.358-39.883,16.482-50.145,34.634c-10.263,18.152-19.469,30.395,10.314,25.913
					c29.782-4.481,78.193-26.274,80.318-51.229S541.049,1330.201,541.049,1330.201z"/>
			</g>
			<g>
				<g>
					<path style="fill:#AEC3FF;" d="M337.337,1288.911c0,0,166.862-6.431,203.711,41.29c0,0,8.149,24.407,33.227,46.633
						l3.909,10.652c0,0-28.914-30.486-39.261-32.331C538.924,1355.155,555.104,1296.035,337.337,1288.911z"/>
				</g>
				<g>
					<path style="fill:#AEC3FF;" d="M574.275,1376.834c0,0,35.815,26.487,38.305,73.813l-6.501,0.583
						c0,0-11.44-48.937-32.114-68.073S574.275,1376.834,574.275,1376.834z"/>
				</g>
			</g>
		</g>
		<g>
			<g>
				<path style="fill:#D4E4F8;" d="M689.016,1268.109c0,0-67.321-37.699-35.905-88.862c0,0,25.133-31.416,52.061-39.495
					c0,0-14.36,76.297,0,78.092c14.362,1.795,9.874-86.17,9.874-86.17s70.912-34.109,98.736-31.417c0,0-43.982,74.502-29.62,72.707
					c14.361-1.796,63.731-77.194,63.731-77.194s72.705-13.464,84.374,29.62c11.669,43.086-7.181,64.629-17.952,67.321
					c-10.771,2.692-79.886,1.795-78.091,10.771c1.795,8.977,48.471,23.338,74.5,15.259c0,0-28.723,70.911-66.422,67.321
					c-37.7-3.591-49.369-26.929-72.706-28.725c-23.338-1.795-40.393,4.489-28.724,10.771c11.669,6.284,51.163,2.06,70.014,18.085
					c18.85,16.024,34.108,25.898-0.898,33.079c-35.007,7.181-97.838,2.693-110.405-24.235
					C689.016,1268.109,689.016,1268.109,689.016,1268.109z"/>
			</g>
			<g>
				<g>
					<path style="fill:#D4E4F8;" d="M899.055,1138.854c0,0-188.497,61.038-210.039,129.255c0,0,0.897,30.52-17.953,65.525v13.465
						c0,0,19.748-45.778,30.519-52.062C701.581,1295.038,659.394,1235.796,899.055,1138.854z"/>
				</g>
				<g>
					<path style="fill:#D4E4F8;" d="M671.063,1333.635c0,0-29.069,44.144-12.497,97.878l7.479-2.009c0,0-7.259-59.186,7.949-88.952
						C689.202,1310.784,671.063,1333.635,671.063,1333.635z"/>
				</g>
			</g>
		</g>
		<g>
			<g>
				<path style="fill:#D2E0FF;" d="M581.913,1216.117c0,0,88.741-49.694,47.329-117.138c0,0-33.131-41.412-68.626-52.062
					c0,0,18.931,100.572,0,102.939c-18.932,2.366-13.017-113.589-13.017-113.589s-93.473-44.962-130.152-41.411
					c0,0,57.977,98.206,39.046,95.84c-18.932-2.367-84.008-101.757-84.008-101.757s-95.84-17.747-111.222,39.046
					c-15.381,56.794,9.466,85.191,23.664,88.741c14.199,3.55,105.306,2.366,102.94,14.198
					c-2.367,11.833-63.894,30.764-98.207,20.114c0,0,37.863,93.474,87.558,88.741c49.694-4.732,65.077-35.496,95.84-37.862
					c30.764-2.366,53.245,5.915,37.863,14.198c-15.382,8.282-67.443,2.714-92.291,23.838c-24.848,21.124-44.961,34.14,1.184,43.604
					c46.145,9.466,128.97,3.55,145.534-31.946C581.913,1216.117,581.913,1216.117,581.913,1216.117z"/>
			</g>
			<g>
				<g>
					<path style="fill:#D2E0FF;" d="M305.042,1045.734c0,0,248.475,80.459,276.871,170.383c0,0-1.183,40.229,23.664,86.375v17.747
						c0,0-26.03-60.343-40.229-68.626C565.348,1251.613,620.959,1173.521,305.042,1045.734z"/>
				</g>
				<g>
					<path style="fill:#D2E0FF;" d="M605.577,1302.492c0,0,38.318,58.188,16.474,129.021l-9.858-2.647
						c0,0,9.569-78.018-10.479-117.256C581.666,1272.371,605.577,1302.492,605.577,1302.492z"/>
				</g>
			</g>
		</g>
		<g>
			<path style="fill:#AEC3FF;" d="M584.903,1585.116c-96.003,0-173.829-77.825-173.829-173.829h347.658
				C758.732,1507.291,680.906,1585.116,584.903,1585.116z"/>
		</g>
		<g>
			<path style="fill:#AEC3FF;" d="M408.674,1593.961h352.459l0,0c0-11.844-9.602-21.445-21.445-21.445H430.119
				C418.275,1572.516,408.674,1582.117,408.674,1593.961L408.674,1593.961z"/>
		</g>
		<g>
			
				<rect x="407.121" y="1411.286" transform="matrix(-1 -1.224647e-16 1.224647e-16 -1 1171.5692 2827.9043)" style="fill:#D2E0FF;" width="357.327" height="5.332"/>
		</g>
	</g>
	<g>
		<g>
			<path style="fill:#FFFFFF;" d="M943.015,1567.615c-0.624,1.528-1.743,9.607-4.189,16.373l0.001,0.01
				c-1.475,4.072-3.42,7.656-6.027,9.067c-6.948,3.767-19.314-1.205-19.314-1.205s-20.453,3.639-22.514,2.811
				c-2.062-0.828-5.956-31.621-5.956-31.621s15.002-17.628,16.404-18.191c1.401-0.563,13.51,4.902,15.512,4.78
				c2.003-0.123,13.265-8.498,16.528-6.77C936.726,1544.608,944.014,1565.167,943.015,1567.615z"/>
		</g>
		<g>
			<path style="fill:#F2F7FE;" d="M916.931,1549.639c0,0-3.081,8.304-4.039,9.078c-0.958,0.775-11.473-13.858-11.473-13.858
				C902.82,1544.296,914.929,1549.761,916.931,1549.639z"/>
		</g>
		<g>
			<path style="fill:#F2F7FE;" d="M933.713,1550.919c0,0-13.809,14.451-13.54,15.707c0.268,1.257,16.461,9.337,17.014,8.984
				c0.552-0.353-3.988-10.417-3.904-12.174C933.367,1561.682,933.713,1550.919,933.713,1550.919z"/>
		</g>
		<g>
			<path style="fill:#F2F7FE;" d="M943.015,1567.615c-0.624,1.528-1.743,9.607-4.189,16.373l0.001,0.01l-0.007,0.001l0.82-15.222
				l-6.181-25.908C936.726,1544.608,944.014,1565.167,943.015,1567.615z"/>
		</g>
		<g>
			<path style="fill:#F2F7FE;" d="M913.484,1591.86c0,0-20.453,3.639-22.514,2.811c-2.062-0.828-5.956-31.621-5.956-31.621
				s5.451,15.582,5.597,16.366c0.145,0.783,6.38-1.336,6.38-1.336L913.484,1591.86z"/>
		</g>
		<g>
			<polygon style="fill:#F2F7FE;" points="890.379,1562.721 893.17,1570.781 897.891,1570.492 894.176,1567.264 			"/>
		</g>
	</g>
	<g>
		<g>
			<path style="fill:#FFFFFF;" d="M1390.01,1567.615c-0.625,1.528-1.744,9.607-4.19,16.373l0.001,0.01
				c-1.474,4.072-3.42,7.656-6.027,9.067c-6.948,3.767-19.314-1.205-19.314-1.205s-20.453,3.639-22.514,2.811
				s-5.956-31.621-5.956-31.621s15.003-17.628,16.404-18.191c1.401-0.563,13.51,4.902,15.512,4.78
				c2.003-0.123,13.265-8.498,16.529-6.77C1383.72,1544.608,1391.008,1565.167,1390.01,1567.615z"/>
		</g>
		<g>
			<path style="fill:#F2F7FE;" d="M1363.925,1549.639c0,0-3.081,8.304-4.039,9.078c-0.958,0.775-11.473-13.858-11.473-13.858
				C1349.814,1544.296,1361.923,1549.761,1363.925,1549.639z"/>
		</g>
		<g>
			<path style="fill:#F2F7FE;" d="M1380.707,1550.919c0,0-13.809,14.451-13.54,15.707c0.268,1.257,16.461,9.337,17.014,8.984
				c0.554-0.353-3.988-10.417-3.904-12.174C1380.361,1561.682,1380.707,1550.919,1380.707,1550.919z"/>
		</g>
		<g>
			<path style="fill:#F2F7FE;" d="M1390.01,1567.615c-0.625,1.528-1.744,9.607-4.19,16.373l0.001,0.01l-0.007,0.001l0.82-15.222
				l-6.18-25.908C1383.72,1544.608,1391.008,1565.167,1390.01,1567.615z"/>
		</g>
		<g>
			<path style="fill:#F2F7FE;" d="M1360.479,1591.86c0,0-20.453,3.639-22.514,2.811s-5.956-31.621-5.956-31.621
				s5.451,15.582,5.597,16.366c0.146,0.783,6.38-1.336,6.38-1.336L1360.479,1591.86z"/>
		</g>
		<g>
			<polygon style="fill:#F2F7FE;" points="1337.374,1562.721 1340.164,1570.781 1344.885,1570.492 1341.17,1567.264 			"/>
		</g>
	</g>
	<g>
		<g>
			<path style="fill:#FFFFFF;" d="M2181.787,1563.737c-0.834,1.73-2.708,11.033-6.029,18.719v0.011
				c-2.001,4.624-4.516,8.648-7.644,10.102c-8.338,3.882-22.346-2.772-22.346-2.772s-24.013,2.772-26.347,1.664
				s-4.669-37.147-4.669-37.147s18.677-19.405,20.345-19.96c1.667-0.555,15.34,6.653,17.676,6.653
				c2.334,0,16.007-8.927,19.676-6.687C2176.118,1536.57,2183.121,1560.965,2181.787,1563.737z"/>
		</g>
		<g>
			<path style="fill:#F2F7FE;" d="M2152.773,1541.006c0,0-4.17,9.425-5.337,10.257s-12.339-16.91-12.339-16.91
				C2136.765,1533.798,2150.438,1541.006,2152.773,1541.006z"/>
		</g>
		<g>
			<path style="fill:#F2F7FE;" d="M2172.171,1543.686c0,0-17.063,15.802-16.842,17.279c0.223,1.479,18.455,12.014,19.122,11.645
				c0.666-0.371-3.892-12.383-3.669-14.416C2171.004,1556.16,2172.171,1543.686,2172.171,1543.686z"/>
		</g>
		<g>
			<path style="fill:#F2F7FE;" d="M2181.787,1563.737c-0.834,1.73-2.708,11.033-6.029,18.719v0.011h-0.006l2.033-17.62
				l-5.336-30.527C2176.118,1536.57,2183.121,1560.965,2181.787,1563.737z"/>
		</g>
		<g>
			<path style="fill:#F2F7FE;" d="M2145.769,1589.796c0,0-24.013,2.772-26.347,1.664s-4.669-37.147-4.669-37.147
				s5.223,18.485,5.337,19.405c0.113,0.92,7.504-1.099,7.504-1.099L2145.769,1589.796z"/>
		</g>
		<g>
			<polygon style="fill:#F2F7FE;" points="2121.006,1554.313 2123.675,1563.871 2129.178,1563.871 2125.092,1559.856 			"/>
		</g>
	</g>
	<g>
		<g>
			<path style="fill:#FFFFFF;" d="M2119.898,1155.903c-0.582,1.228-1.656,7.701-3.94,13.137l0.001,0.007
				c-1.378,3.271-3.185,6.156-5.586,7.308c-6.399,3.075-17.722-0.791-17.722-0.791s-18.796,3.093-20.683,2.449
				c-1.888-0.645-5.285-25.243-5.285-25.243s13.874-14.236,15.163-14.7c1.29-0.462,12.374,3.802,14.212,3.686
				c1.84-0.116,12.225-6.917,15.212-5.563C2114.257,1137.553,2120.83,1153.936,2119.898,1155.903z"/>
		</g>
		<g>
			<path style="fill:#C4D9E8;" d="M2096.059,1141.755c0,0-2.876,6.671-3.76,7.299s-10.452-10.984-10.452-10.984
				C2083.137,1137.607,2094.221,1141.871,2096.059,1141.755z"/>
		</g>
		<g>
			<path style="fill:#DFEBF5;" d="M2111.456,1142.629c0,0-12.759,11.685-12.521,12.688c0.239,1.003,15.058,7.322,15.566,7.035
				c0.51-0.286-3.601-8.299-3.514-9.704C2111.076,1151.242,2111.456,1142.629,2111.456,1142.629z"/>
		</g>
		<g>
			<path style="fill:#C4D9E8;" d="M2119.898,1155.903c-0.582,1.228-1.656,7.701-3.94,13.137l0.001,0.007l-0.006,0.001l0.841-12.186
				l-5.523-20.671C2114.257,1137.553,2120.83,1153.936,2119.898,1155.903z"/>
		</g>
		<g>
			<path style="fill:#DFEBF5;" d="M2092.651,1175.563c0,0-18.796,3.093-20.683,2.449c-1.888-0.645-5.285-25.243-5.285-25.243
				s4.914,12.417,5.043,13.042c0.13,0.625,5.863-1.126,5.863-1.126L2092.651,1175.563z"/>
		</g>
		<g>
			<polygon style="fill:#DFEBF5;" points="2071.61,1152.458 2074.125,1158.881 2078.46,1158.607 2075.068,1156.058 			"/>
		</g>
	</g>
	<g>
		<g>
			<path style="fill:#223156;" d="M1101.065,1422.76c0,0,14.372,38.479,11.32,52.75c-3.051,14.271,1.873,41.943-3.971,54.314
				s-16.274,30.356-6.261,34.912c3.798,1.728,48.011-32.568,50.544-42.685c2.532-10.115,4.504-39.972,12.967-56.181
				c8.463-16.208,1.369-29.276-10.863-35.237c-12.231-5.959-29.276-38.599-29.276-38.599L1101.065,1422.76z"/>
		</g>
		<g>
			<g>
				<g>
					<path style="fill:#AEC3FF;" d="M1233.078,1595.385l-0.644-0.012c-5.255-0.096-9.314-4.391-8.819-9.332l35.06-350.151
						l30.595,2.729l-50.344,352.034C1238.532,1593.404,1236.017,1595.439,1233.078,1595.385z"/>
				</g>
			</g>
			<g>
				<g>
					<path style="fill:#AEC3FF;" d="M1570.678,1595.385l0.644-0.012c5.255-0.096,9.314-4.391,8.819-9.332l-35.06-350.151
						l-30.595,2.729l50.344,352.034C1565.224,1593.404,1567.739,1595.439,1570.678,1595.385z"/>
				</g>
			</g>
			<g>
				<g>
					<path style="fill:#AEC3FF;" d="M985.729,1595.385l-0.644-0.012c-5.254-0.096-9.313-4.391-8.818-9.332l35.061-350.151
						l30.594,2.729l-50.344,352.034C991.184,1593.404,988.67,1595.439,985.729,1595.385z"/>
				</g>
			</g>
			<g>
				<path style="fill:#D2E0FF;" d="M1560.237,1184.955l62.233-307.333c7.988-41.611-26.492-79.659-71.262-78.637l-120.024,2.741
					c-41.405,0.944-77.405,28.656-88.913,68.441l-91.053,314.787H1560.237z"/>
			</g>
			<g>
				<path style="fill:#AEC3FF;" d="M1522.586,1184.955l62.234-307.333c7.988-41.611-26.492-79.659-71.262-78.637l-120.024,2.741
					c-41.405,0.944-77.406,28.656-88.914,68.441l-91.052,314.787H1522.586z"/>
			</g>
			<g>
				<path style="fill:#D2E0FF;" d="M1542.891,1241.009h-474.864c-9.54,0-17.347-7.807-17.347-17.347v-21.36
					c0-9.54,7.807-17.347,17.347-17.347h492.211v38.707C1560.237,1233.202,1552.431,1241.009,1542.891,1241.009z"/>
			</g>
			<g>
				<path style="fill:#AEC3FF;" d="M1320.05,1241.009h-302.716c-7.686,0-13.974-6.288-13.974-13.974v-28.106
					c0-7.685,6.288-13.974,13.974-13.974h302.716c7.686,0,13.974,6.289,13.974,13.974v28.106
					C1334.023,1234.721,1327.735,1241.009,1320.05,1241.009z"/>
			</g>
		</g>
		<g>
			<path style="fill:#2C3A64;" d="M1339.73,1059.202c0,0-252.477-4.017-286.16,17.41c-33.685,21.427,33.67,363.54,33.67,363.54
				s65.3,2.082,70.492-15.198c0,0-11.748-160.308-1.469-187.999c10.28-27.691,3.939-66.071,3.939-66.071
				s127.718,19.486,168.277,9.895C1369.039,1171.188,1339.73,1059.202,1339.73,1059.202z"/>
		</g>
		<g>
			<path style="fill:#163560;" d="M1058.186,1482.464c0,0-13.847,38.67-25.385,47.604c-11.54,8.936-25.632,33.253-38.078,38.936
				c-12.446,5.682-32.02,12.692-27.309,22.634c1.787,3.77,57.694,6.094,66.155,0c8.462-6.095,29.231-27.634,46.155-34.557
				c16.923-6.923,19.936-21.485,14.436-33.931s2.536-48.38,2.536-48.38L1058.186,1482.464z"/>
		</g>
		<g>
			<path style="fill:#35488B;" d="M1482.898,1050.213c0,0-299.613,46.886-322.695,73.546
				c-23.081,26.66-114.508,373.928-114.508,373.928s26.676,14.967,51.001,1.116c0,0,69.604-117.695,100.356-154.619
				s42.547-151.157,47.611-152.311c5.064-1.154,166.294,19.472,225.692-19.837
				C1505.362,1148.87,1482.898,1050.213,1482.898,1050.213z"/>
		</g>
		<g>
			<g>
				<path style="fill:#FFB27D;" d="M1204.576,985.89c0,0-10.618,0.769-18.063-3.93c-2.504-1.579-20.1-7.681-28.151-4.044
					c-8.052,3.637-25.021,16.107-20.375,19.781c4.646,3.674,19.632,1.53,23.285,0.339c3.655-1.19,9.932,7.922,16.514,7.432
					c6.58-0.491,16.031-4.064,30.023-1.882c13.991,2.185,11.604-17.944,9.559-19.652S1204.576,985.89,1204.576,985.89z"/>
			</g>
			<g>
				<path style="fill:#FFB27D;" d="M1189.797,984.631c0,0-12.022-9.715-15.778-13.177c-3.755-3.462-5.126-2.99-5.558-0.835
					c-0.431,2.155,8.975,9.618,6.105,15.629C1171.699,992.259,1191.247,988.513,1189.797,984.631z"/>
			</g>
		</g>
		<g>
			<g>
				<path style="fill:#163560;" d="M1462.551,893.275l-0.789-1.44c14.741-8.082,25.955-17.556,33.33-28.157
					c5.877-8.447,9.346-17.632,10.307-27.296c1.637-16.454-4.627-28.731-4.69-28.853l-0.05-1.688
					c0.269,0.516,9.356,13.337,7.671,30.273c-0.99,9.946-4.608,19.983-10.647,28.663
					C1490.16,875.59,1477.517,885.069,1462.551,893.275z"/>
			</g>
		</g>
		<g>
			<path style="fill:#FFB27D;" d="M1210.414,713.614c0,0,4.198-10.706,4.709-13.394c0.512-2.688-4.177-19.89,0.857-26.316
				s19.955-18.916,22.231-13.94c2.277,4.978-2.941,17.956-4.813,20.974c-1.872,3.018,4.927,10.654,3.04,16.453
				c-1.886,5.799-9.482,15.005-10.598,28.042c-1.114,13.037-16.344,4.962-17.427,2.75
				C1207.331,725.974,1210.414,713.614,1210.414,713.614z"/>
		</g>
		<g>
			<path style="fill:#163560;" d="M1263.529,626.335c25.533-8.71,33.186-7.37,49.182-7.731c23.406-0.528,48.807-9.952,61.116,14.99
				c18.635,37.761,30.868,7.801,72.56,25.131c41.691,17.329,22.636,54.246,18.258,64.59c-19.207,45.382,30.966,63.756,39.436,89.704
				c8.472,25.947-22.4,72.182-62.261,72.757c-39.859,0.575-224.946-22.226-207.23-84.244c17.716-62.02-14.928-95.728-17.616-111.841
				C1213.549,669.174,1227.375,638.668,1263.529,626.335z"/>
		</g>
		<g>
			<path style="fill:#F99746;" d="M1494.85,1075.121c-23.911,3.333-46.117,6.506-66.719,9.487
				c-41.064,5.938-114.335-3.016-114.643-12.979c-0.488-16.427,5.223-33.797,6.417-50.109c0.579-7.793,0.124-15.346-2.526-22.433
				c-0.898-2.39-2.002-5.13-3.264-8.157c-2.56-6.165-5.723-13.502-8.919-21.385c-1.797-4.459-3.595-9.101-5.301-13.811
				c-0.762-2.094-1.491-4.197-2.196-6.302c-0.158-0.467-0.317-0.944-0.466-1.41c-0.512-1.536-1.001-3.061-1.468-4.597
				c-0.443-1.455-0.863-2.912-1.273-4.368c-1.444-5.187-2.605-10.294-3.356-15.163c-0.591-3.867-0.921-7.587-0.909-11.102
				c0.057-15.675-8.396-20.169-18.747-21.683c-4.585-0.67-9.532-0.762-14.276-0.977c-0.012,0-0.012,0-0.023,0
				c-3.765-0.171-7.428-0.434-10.658-1.115c-6.917-1.478-14.186-39.701-5.165-59.268c2.787-6.028,7.11-10.283,13.48-11.148
				l0.068-0.011c11.489-1.49,29.758-5.211,45.422-10.898c4.039-1.468,56.411-17.483,59.722-17.825
				c27.723-2.82,52.556-5.642,78.344,14.516C1500.936,853.286,1495.042,1074.745,1494.85,1075.121z"/>
		</g>
		<g>
			<g>
				<path style="fill:#163560;" d="M1225.361,708.6c-4.941-4.207-15.328-13.987-15.848-26.893
					c-0.449-11.14,5.093-22.564,16.475-33.956c18.108-18.122,36.301-26.093,48.379-29.591c13.124-3.8,38.216,1.867,38.581,1.89
					l-7.964,1.99c-12.931-4.97-43.767-7.82-77.824,26.882c-10.941,11.149-15.376,20.208-14.947,30.866
					c0.496,12.277,8.074,18.799,12.809,22.828c0.239,0.203,6.339,1.702,6.339,1.702S1225.496,708.715,1225.361,708.6z"/>
			</g>
		</g>
		<g>
			<g>
				<path style="fill:#FFB27D;" d="M1331.775,823.44c-23.262,6.036-26.509-1.866-29.672-10.408
					c-1.313-3.537-3.121-9.762-5.249-17.23c-0.888-3.128-1.837-6.475-2.83-9.937c-1.909-6.669-4.112-13.473-5.892-18.759
					c-1.945-5.777-3.386-9.739-3.386-9.739l44.493-22.706l2.646-1.345c10.255,36.655,25.372,50.455,28.105,56.43
					C1365.74,802.322,1347.045,819.474,1331.775,823.44z"/>
			</g>
			<g>
				<path style="fill:#F4A269;" d="M1333.276,751.451c-1.921,14.885-10.554,36.042-36.422,44.351
					c-0.888-3.128-1.837-6.475-2.83-9.937c-1.909-6.669-4.112-13.473-5.892-18.759L1333.276,751.451z"/>
			</g>
		</g>
		<g>
			<path style="fill:#FFB27D;" d="M1284.913,787.532c0,0,62.373-17.868,50.648-56.538c-11.725-38.671-11.571-67.021-51.89-57.25
				c-40.318,9.773-43.546,26.864-42.772,40.724C1241.673,728.327,1268.387,791.183,1284.913,787.532z"/>
		</g>
		<g>
			<path style="fill:#163560;" d="M1278.224,684.775c-17.36,9.689-20.446,26.255-39.411,28.401
				c-15.561,1.761-23.376-41.413,9.136-58.143c39.439-20.294,34.295-34.819,51.305-36.377c28.086-2.573,48.463,90.815,46.921,92.679
				c-1.542,1.863-8.25,15.898-8.25,15.898s-10.476-6.447-9.604-10.451c2.817-12.932-7.222-24.306-15.467-14.54
				C1305.89,710.49,1290.639,677.846,1278.224,684.775z"/>
		</g>
		<g>
			<path style="fill:#F99746;" d="M1231.461,746.178c0,0-5.372,17.321-15.095,41.549c0,0,0,0-0.004,0.006
				c-3.248,8.089-6.983,16.949-11.165,26.193c-1.588,3.511-3.138,6.788-4.649,9.85c-0.046,0.093-0.088,0.177-0.134,0.266
				c-14.356,28.961-25.685,38.511-38.852,40.723c-5.523,0.928-10.968,1.39-15.507,0.04c-7.449-2.212-12.461-9.308-11.395-27.241
				c1.715-28.861,77.741-129.169,77.741-129.169c6.391,1.788,10.725,8.254,13.624,15.346
				C1230.329,734.268,1231.461,746.178,1231.461,746.178z"/>
		</g>
		<g>
			<path style="fill:#F99746;" d="M1289.309,815.136c0,0-112.344,11.324-127.116,12.648c-14.771,1.324-18.331,36.182-18.331,36.182
				s70.935,28.063,143.993,27.471C1360.914,890.844,1289.309,815.136,1289.309,815.136z"/>
		</g>
		<g>
			<g>
				<path style="fill:#163560;" d="M1472.006,685.014c-3.28-15.561-13.042-31.338-27.647-36.744
					c-11.127-4.117-25.719-5.121-42.188-2.898c-7.913,1.069-14.93-0.659-20.851-5.139c-4.345-3.287-8.937-9.479-9.121-9.751
					l0.001,0.012l1.925,5.309c-2.462,3.753,0.749,4.098,5.502,7.721l0.006,0.004c4.388,3.337,12.223,5.307,22.813,3.878
					c16.136-2.178,28.304-0.658,39.121,3.344c11.66,4.319,20.247,11.214,24.558,22.077c0.001,0.004,0.001,0.004,0.002,0.008
					c0.827,2.083,1.497,4.315,1.997,6.699l3.683,5.196l0.005,0.004l0.001,0.005L1472.006,685.014z"/>
			</g>
		</g>
		<g>
			<path style="fill:#ED7D2B;" d="M1216.362,787.732c-3.248,8.089-6.983,16.949-11.165,26.193c-1.588,3.511-3.138,6.788-4.649,9.85
				c-0.451,0.155-0.918,0.289-1.396,0.396c-0.003,0-0.003,0-0.008,0c-3.493,0.778-6.168,0.999-8.139,0.81
				c-7.265-0.689-5.056-6.867,0.694-10.898C1198.95,809.001,1216.071,788.09,1216.362,787.732z"/>
		</g>
		<g>
			<path style="fill:#ED7D2B;" d="M1422.103,917.615c0,0-35.719,92.256-102.197,103.904c0.579-7.793,0.124-15.346-2.526-22.433
				c-0.898-2.39-2.002-5.13-3.264-8.157c3.946-1.865,6.586-3.002,6.586-3.002L1422.103,917.615z"/>
		</g>
		<g>
			<path style="fill:#ED7D2B;" d="M1366.113,883.491l-32.842,86.075h-28.052l-0.023-0.021c-1.797-4.459-3.595-9.101-5.301-13.811
				c-0.762-2.094-1.491-4.197-2.196-6.302c-0.158-0.467-0.317-0.944-0.466-1.41C1316.561,941.583,1350.552,907.438,1366.113,883.491
				z"/>
		</g>
		<g>
			<path style="fill:#F99746;" d="M1412.148,815.136c0,0-78.872,126.413-112.252,140.601c-19.01,8.08-104.58,26.466-104.58,26.466
				l1.736,18.976c0,0,122.599,4.498,136.224,0c40.114-13.245,105.116-100.58,105.116-100.58L1412.148,815.136z"/>
		</g>
	</g>
	<g>
		<g>
			<g>
				<rect x="1495.748" y="1165.831" style="fill:#35488B;" width="60.317" height="204.109"/>
			</g>
			<g>
				<rect x="1556.065" y="1165.831" style="fill:#2C3A64;" width="145.463" height="204.109"/>
			</g>
			<g>
				<ellipse style="fill:#DDE7FE;" cx="1525.906" cy="1191.324" rx="10.068" ry="10.56"/>
			</g>
			<g>
				<path style="fill:#6C7AFF;" d="M1518.788,1191.324c0-4.123,3.187-7.468,7.118-7.468s7.119,3.345,7.119,7.468
					c0,4.124-3.188,7.467-7.119,7.467S1518.788,1195.448,1518.788,1191.324z"/>
			</g>
			<g>
				<rect x="1511.941" y="1216.765" style="fill:#8FADEF;" width="28.372" height="53.76"/>
			</g>
		</g>
		<g>
			<rect x="1626.944" y="1296.441" style="fill:#CDE2FC;" width="113.987" height="38.54"/>
		</g>
		<g>
			<rect x="1740.932" y="1296.441" style="fill:#A4C8F4;" width="113.987" height="38.54"/>
		</g>
		<g>
			<g>
				<rect x="1626.945" y="1315.293" style="fill:#8FADEF;" width="28.444" height="0.837"/>
			</g>
		</g>
		<g>
			<g>
				<rect x="1662.363" y="1303.436" style="fill:#8FADEF;" width="78.568" height="0.837"/>
			</g>
		</g>
		<g>
			<g>
				<rect x="1626.945" y="1325.67" style="fill:#8FADEF;" width="50.288" height="0.836"/>
			</g>
		</g>
		<g>
			<rect x="1591.592" y="1257.902" style="fill:#D9E8FE;" width="113.986" height="38.539"/>
		</g>
		<g>
			<rect x="1705.578" y="1257.902" style="fill:#96C1EA;" width="113.988" height="38.539"/>
		</g>
		<g>
			<g>
				<rect x="1591.592" y="1276.754" style="fill:#8FADEF;" width="28.445" height="0.837"/>
			</g>
		</g>
		<g>
			<g>
				<rect x="1627.01" y="1264.895" style="fill:#8FADEF;" width="78.569" height="0.838"/>
			</g>
		</g>
		<g>
			<g>
				<rect x="1591.592" y="1287.131" style="fill:#8FADEF;" width="50.289" height="0.836"/>
			</g>
		</g>
		<g>
			<rect x="1655.39" y="1149.253" style="fill:#D4E4F8;" width="113.987" height="38.54"/>
		</g>
		<g>
			<rect x="1769.377" y="1149.253" style="fill:#A4C8F4;" width="113.987" height="38.54"/>
		</g>
		<g>
			<g>
				<rect x="1655.39" y="1168.104" style="fill:#8FADEF;" width="28.446" height="0.837"/>
			</g>
		</g>
		<g>
			<g>
				<rect x="1690.808" y="1156.246" style="fill:#8FADEF;" width="78.569" height="0.837"/>
			</g>
		</g>
		<g>
			<g>
				<rect x="1655.39" y="1177.945" style="fill:#8FADEF;" width="50.288" height="0.837"/>
			</g>
		</g>
		<g>
			<rect x="1620.037" y="1110.713" style="fill:#F5FBFF;" width="113.986" height="38.54"/>
		</g>
		<g>
			<rect x="1734.023" y="1110.713" style="fill:#BDD8FF;" width="113.987" height="38.54"/>
		</g>
		<g>
			<g>
				<rect x="1620.037" y="1129.564" style="fill:#8FADEF;" width="28.445" height="0.837"/>
			</g>
		</g>
		<g>
			<g>
				<rect x="1728.143" y="1129.564" style="fill:#8FADEF;" width="28.446" height="0.837"/>
			</g>
		</g>
		<g>
			<g>
				<rect x="1717.631" y="1117.707" style="fill:#8FADEF;" width="78.569" height="0.836"/>
			</g>
		</g>
		<g>
			<g>
				<rect x="1620.037" y="1139.941" style="fill:#8FADEF;" width="50.289" height="0.836"/>
			</g>
		</g>
		<g>
			
				<rect x="1748.447" y="1187.74" transform="matrix(-1 -1.224647e-16 1.224647e-16 -1 3610.8818 2445.6416)" style="fill:#BDD8FF;" width="113.987" height="70.161"/>
		</g>
		<g>
			
				<rect x="1634.461" y="1187.74" transform="matrix(-1 -1.224647e-16 1.224647e-16 -1 3382.9082 2445.6416)" style="fill:#F5FBFF;" width="113.986" height="70.161"/>
		</g>
		<g>
			<g>
				<rect x="1833.989" y="1222.256" style="fill:#8FADEF;" width="28.444" height="1.131"/>
			</g>
		</g>
		<g>
			<rect x="1670.325" y="1200.935" style="fill:#35488B;" width="156.691" height="0.597"/>
		</g>
		<g>
			<g>
				<rect x="1812.146" y="1241.146" style="fill:#8FADEF;" width="50.287" height="1.13"/>
			</g>
		</g>
		<g>
			<rect x="1715.354" y="1213.504" style="fill:#35488B;" width="54.022" height="0.596"/>
		</g>
		<g>
			<g>
				<rect x="1539.451" y="1335.127" style="fill:#F77D48;" width="335.606" height="260.088"/>
			</g>
			<g>
				<rect x="1429.12" y="1335.127" style="fill:#FF8C64;" width="266.091" height="260.088"/>
			</g>
			<g>
				<path style="fill:#2C3A64;" d="M1581.272,1377.585h-68.552c-4.371,0-7.946-3.575-7.946-7.946v-1.438
					c0-4.371,3.575-7.947,7.946-7.947h68.552c4.37,0,7.946,3.576,7.946,7.947v1.438
					C1589.219,1374.01,1585.643,1377.585,1581.272,1377.585z"/>
			</g>
		</g>
		<g>
			<g>
				<polygon style="fill:#9FC1F4;" points="1591.408,1495.08 1528.571,1483.507 1539.604,1417.596 1602.441,1429.17 				"/>
			</g>
			<g>
				<polygon style="fill:#8FADEF;" points="1600.658,1439.82 1537.821,1428.248 1539.604,1417.596 1602.441,1429.17 				"/>
			</g>
		</g>
		<g>
			<g>
				<polygon style="fill:#FFB93E;" points="1683.059,1429.092 1621.354,1446.094 1605.145,1381.371 1666.849,1364.368 				"/>
			</g>
			<g>
				<polygon style="fill:#FFA412;" points="1669.469,1374.828 1607.764,1391.83 1605.145,1381.371 1666.849,1364.368 				"/>
			</g>
		</g>
	</g>
	<g>
		<g>
			<g>
				<g>
					<rect x="1624.951" y="795.04" style="fill:#8C9DF4;" width="279.003" height="206.138"/>
				</g>
				<g>
					<rect x="1533.229" y="795.04" style="fill:#A9BAFF;" width="221.212" height="206.138"/>
				</g>
				<g>
					<path style="fill:#35488B;" d="M1659.874,828.691h-57.302c-3.548,0-6.45-2.902-6.45-6.45v-0.836
						c0-3.547,2.902-6.449,6.45-6.449h57.302c3.547,0,6.45,2.902,6.45,6.449v0.836
						C1666.324,825.789,1663.421,828.691,1659.874,828.691z"/>
				</g>
				<g>
					<rect x="1522.382" y="759.963" style="fill:#CAD7FF;" width="232.059" height="45.413"/>
				</g>
				<g>
					<rect x="1754.44" y="759.963" style="fill:#6980E2;" width="156.47" height="45.413"/>
				</g>
			</g>
			<g>
				<g>
					
						<rect x="1662.107" y="846.196" transform="matrix(0.9672 -0.2541 0.2541 0.9672 -168.5671 460.5762)" style="fill:#FF8C64;" width="73.366" height="73.365"/>
				</g>
				<g>
					
						<rect x="1654.293" y="847.205" transform="matrix(0.9672 -0.2541 0.2541 0.9672 -161.2656 457.6124)" style="fill:#F77D48;" width="73.366" height="11.855"/>
				</g>
			</g>
		</g>
		<g>
			<g>
				<polygon style="fill:#F77D48;" points="1676.771,667.423 1734.945,620.585 1821.262,631.138 1821.262,667.423 				"/>
			</g>
			<g>
				
					<rect x="1639.056" y="571.759" transform="matrix(-1.836970e-16 1 -1 -1.836970e-16 2306.7041 -1018.6963)" style="fill:#FF8C64;" width="47.289" height="144.49"/>
			</g>
			<g>
				<path style="fill:#DDE7FE;" d="M1716.898,636.642c4.129,0,7.477,3.347,7.477,7.476s-3.348,7.475-7.477,7.475
					c-4.128,0-7.475-3.346-7.475-7.475S1712.771,636.642,1716.898,636.642z"/>
			</g>
			<g>
				<path style="fill:#0B0755;" d="M1716.898,639.938c2.309,0,4.18,1.871,4.18,4.18s-1.871,4.179-4.18,4.179
					c-2.308,0-4.18-1.87-4.18-4.179S1714.591,639.938,1716.898,639.938z"/>
			</g>
			<g>
				
					<rect x="1665.995" y="621.921" transform="matrix(-1.836970e-16 1 -1 -1.836970e-16 2320.8105 -1032.248)" style="fill:#BDD8FF;" width="21.068" height="44.721"/>
			</g>
		</g>
		<g>
			<g>
				<rect x="1599.133" y="713.806" style="fill:#DDE7FE;" width="143.194" height="46.157"/>
			</g>
			<g>
				<g>
					<rect x="1742.327" y="713.806" style="fill:#8C9DF4;" width="143.195" height="46.157"/>
				</g>
				<g>
					<g>
						<rect x="1599.134" y="736.383" style="fill:#8C9DF4;" width="35.733" height="1.003"/>
					</g>
				</g>
				<g>
					<g>
						<rect x="1643.625" y="722.182" style="fill:#8C9DF4;" width="98.702" height="1.002"/>
					</g>
				</g>
				<g>
					<g>
						<rect x="1599.134" y="748.81" style="fill:#8C9DF4;" width="63.173" height="1.003"/>
					</g>
				</g>
			</g>
		</g>
		<g>
			<g>
				<rect x="1554.721" y="667.648" style="fill:#E9F0FF;" width="143.195" height="46.157"/>
			</g>
			<g>
				<g>
					<rect x="1697.916" y="667.648" style="fill:#BBC9F9;" width="143.194" height="46.157"/>
				</g>
				<g>
					<g>
						<rect x="1554.721" y="690.227" style="fill:#8FADEF;" width="35.734" height="1.003"/>
					</g>
				</g>
				<g>
					<g>
						<rect x="1599.214" y="676.023" style="fill:#8FADEF;" width="98.702" height="1.003"/>
					</g>
				</g>
				<g>
					<g>
						<rect x="1554.721" y="702.652" style="fill:#8FADEF;" width="63.175" height="1.003"/>
					</g>
				</g>
			</g>
		</g>
	</g>
	<g>
		<path style="fill:#2E3552;" d="M2634.123,1605.37H190.858c-2.023,0-3.678-1.654-3.678-3.678v-4.052c0-2.023,1.655-3.68,3.678-3.68
			h2443.265c2.023,0,3.678,1.656,3.678,3.68v4.052C2637.801,1603.716,2636.146,1605.37,2634.123,1605.37z"/>
	</g>
	<g>
		<path style="fill:#FFFFFF;" d="M2035.196,835.547c0,0,102.21-8.12,184.239-130.178l-62.578-135.61
			c0,0-83.596,108.434-153.752,116.773L2035.196,835.547z"/>
	</g>
	<g>
		<path style="fill:#FFFFFF;" d="M1636.061,527.225c0,0-76.229-6.056-137.407-97.088l46.671-101.14c0,0,62.347,80.872,114.67,87.09
			L1636.061,527.225z"/>
	</g>
	<g>
		<path style="fill:#FFFFFF;" d="M734.271,944.902c0,0-84.925-6.747-153.082-108.162l51.995-112.678
			c0,0,69.459,90.096,127.751,97.025L734.271,944.902z"/>
	</g>
	<g>
		<path style="fill:#FFFFFF;" d="M1050.513,1382.956c0,0-28.324,70.292-132.544,101.161l-81.81-74.115
			c0,0,94.958-34.987,116.35-82.623L1050.513,1382.956z"/>
	</g>
	<g>
		<g>
			<path style="fill:#0B233F;" d="M1098.166,1001.178h140.61l0,0c0-6.19-5.019-11.208-11.209-11.208h-129.401V1001.178z"/>
		</g>
		<g>
			<polygon style="fill:#0B233F;" points="1098.57,848.04 881.175,848.04 933.319,1001.178 1152.124,1001.178 			"/>
		</g>
		<g>
			<polygon style="fill:#163560;" points="877.974,848.037 930.118,1001.178 1148.924,1001.178 1095.367,848.037 			"/>
		</g>
		<g>
			<path style="fill:#FFFFFF;" d="M995.18,923.192c1.352,5.852,7.189,10.594,13.04,10.594c5.852,0,9.5-4.742,8.148-10.594
				c-1.352-5.852-7.19-10.595-13.04-10.595C997.477,912.598,993.828,917.341,995.18,923.192z"/>
		</g>
	</g>
	<g>
		<g>
			<rect x="1443.334" y="959.33" style="fill:#E9F0FF;" width="127.287" height="46.156"/>
		</g>
		<g>
			<g>
				<rect x="1570.621" y="959.33" style="fill:#6980E2;" width="127.285" height="46.156"/>
			</g>
			<g>
				<g>
					<rect x="1443.334" y="981.907" style="fill:#8FADEF;" width="31.764" height="1.002"/>
				</g>
			</g>
			<g>
				<g>
					<rect x="1482.884" y="967.705" style="fill:#8FADEF;" width="87.737" height="1.002"/>
				</g>
			</g>
			<g>
				<g>
					<rect x="1443.334" y="994.333" style="fill:#8FADEF;" width="56.156" height="1.003"/>
				</g>
			</g>
		</g>
	</g>
	<g>
		<g>
			<rect x="1786.233" y="834.483" style="fill:#ED7D2B;" width="51.672" height="166.694"/>
		</g>
		<g>
			<rect x="1837.905" y="834.483" style="fill:#F99746;" width="124.609" height="166.694"/>
		</g>
		<g>
			
				<ellipse transform="matrix(0.7071 -0.7071 0.7071 0.7071 -74.0478 1531.8383)" style="fill:#DDE7FE;" cx="1812.068" cy="855.303" rx="8.624" ry="8.624"/>
		</g>
		<g>
			<path style="fill:#6C7AFF;" d="M1805.971,855.303c0-3.368,2.73-6.098,6.098-6.098c3.368,0,6.099,2.729,6.099,6.098
				c0,3.368-2.73,6.099-6.099,6.099C1808.701,861.401,1805.971,858.671,1805.971,855.303z"/>
		</g>
		<g>
			<rect x="1800.105" y="876.079" style="fill:#8FADEF;" width="24.305" height="43.905"/>
		</g>
	</g>
	<g>
		<g>
			<g>
				<g>
					<g>
						<polygon style="fill:#6980E2;" points="842.043,989.068 847.839,989.068 847.839,889.279 788.55,737.994 894.409,655.964 
							890.86,651.384 781.572,736.07 842.043,890.373 						"/>
					</g>
				</g>
				<g>
					<path style="fill:#6980E2;" d="M906.373,666.416L906.373,666.416c2.663-1.889,3.291-5.577,1.402-8.241l-8.815-12.437
						c-1.889-2.664-5.579-3.291-8.242-1.403l0,0c-2.663,1.889-3.292,5.578-1.403,8.241l8.817,12.437
						C900.021,667.676,903.71,668.305,906.373,666.416z"/>
				</g>
				<g>
					<path style="fill:#6980E2;" d="M794.054,736.254c0-4.237-3.435-7.673-7.673-7.673c-4.238,0-7.673,3.435-7.673,7.673
						c0,4.238,3.435,7.674,7.673,7.674C790.619,743.928,794.054,740.492,794.054,736.254z"/>
				</g>
			</g>
			<g>
				<g>
					<path style="fill:#6980E2;" d="M816.806,1002.792h58.313v-5.888c0-5.916-4.796-10.712-10.712-10.712h-36.459
						c-6.154,0-11.143,4.989-11.143,11.143V1002.792z"/>
				</g>
				<g>
					
						<rect x="838.848" y="896.346" transform="matrix(-1 -1.224647e-16 1.224647e-16 -1 1689.9414 1885.4141)" style="fill:#6980E2;" width="12.246" height="92.723"/>
				</g>
			</g>
		</g>
		<g>
			<g>
				<path style="fill:#F99746;" d="M893.248,752.481c0.276,0.309,0.554,0.618,0.838,0.906l0.06,0.066
					c0.269,0.302,0.54,0.59,0.818,0.871c7.919,6.87,34.162-5.444,59.552-28.149c25.383-22.698,40.548-47.415,34.603-56.048
					c-0.249-0.309-0.506-0.609-0.775-0.911l-0.059-0.066c-0.256-0.314-0.532-0.624-0.809-0.934
					c-23.272-26.023-63.231-28.246-89.246-4.982C872.207,686.505,869.977,726.457,893.248,752.481z"/>
			</g>
			<g>
				<path style="fill:#F9DDBF;" d="M894.084,753.394l0.058,0.058c0.087,0.117,0.174,0.218,0.261,0.319
					c0.174,0.203,0.362,0.376,0.565,0.551c7.91,6.867,34.162-5.435,59.545-28.15c25.383-22.688,40.552-47.404,34.611-56.039
					c-0.159-0.218-0.319-0.434-0.492-0.623c-0.087-0.101-0.175-0.203-0.29-0.29l-0.059-0.072c-5.389-5.1-20.021-0.551-37.117,10.518
					c-7.273,4.71-14.995,10.605-22.646,17.444c-5.998,5.374-11.43,10.852-16.153,16.197
					C896.967,730.793,889.201,746.933,894.084,753.394z"/>
			</g>
			<g>
				<path style="fill:#FFEFE1;" d="M912.367,713.306c4.478,3.694,10.229,5.897,16.502,5.897c14.386,0,26.05-11.664,26.05-26.05
					c0-4.941-1.377-9.563-3.753-13.489c-7.273,4.71-14.995,10.605-22.646,17.444C922.523,702.482,917.091,707.96,912.367,713.306z"
					/>
			</g>
		</g>
	</g>
	<g>
		<g>
			<path style="fill:#2A4E96;" d="M774.185,1035.631h1196.588c9.229,0,16.711-7.482,16.711-16.712v-1.028
				c0-9.23-7.482-16.713-16.711-16.713H774.185c-9.229,0-16.712,7.483-16.712,16.713v1.028
				C757.474,1028.148,764.956,1035.631,774.185,1035.631z"/>
		</g>
		<g>
			<g>
				<path style="fill:#2A4E96;" d="M779.835,1603.154l-0.408-0.051c-4.88-0.603-8.336-4.958-7.72-9.729l74.326-574.971l41.651,1.193
					l-99.888,577.775C787.157,1601.075,783.645,1603.625,779.835,1603.154z"/>
			</g>
		</g>
		<g>
			<g>
				<path style="fill:#2A4E96;" d="M1991.213,1603.154l0.407-0.051c4.88-0.603,8.337-4.958,7.721-9.729l-74.326-574.971
					l-41.65,1.193l99.886,577.775C1983.891,1601.075,1987.403,1603.625,1991.213,1603.154z"/>
			</g>
		</g>
	</g>
</g>
</svg>
